<svg width="512" height="512" viewBox="0 0 512 512" fill="none" xmlns="http://www.w3.org/2000/svg">
  <rect width="512" height="512" rx="80" fill="#3b82f6"/>
  <path d="M128 192C128 174.3 142.3 160 160 160H192C209.7 160 224 174.3 224 192V320C224 337.7 209.7 352 192 352H160C142.3 352 128 337.7 128 320V192Z" fill="white"/>
  <path d="M288 192C288 174.3 302.3 160 320 160H352C369.7 160 384 174.3 384 192V320C384 337.7 369.7 352 352 352H320C302.3 352 288 337.7 288 320V192Z" fill="white"/>
  <path d="M128 384C128 375.2 135.2 368 144 368H368C376.8 368 384 375.2 384 384C384 392.8 376.8 400 368 400H144C135.2 400 128 392.8 128 384Z" fill="white"/>
  <path d="M200 128C200 119.2 207.2 112 216 112H296C304.8 112 312 119.2 312 128C312 136.8 304.8 144 296 144H216C207.2 144 200 136.8 200 128Z" fill="white"/>
  <circle cx="256" cy="256" r="16" fill="white"/>
</svg>
